<svg id="Capa_1" data-name="Capa 1" xmlns="http://www.w3.org/2000/svg" xmlns:xlink="http://www.w3.org/1999/xlink" viewBox="0 0 40.45 17.24"><defs><style>.cls-1{fill:url(#Degradado_sin_nombre_5);}.cls-2{fill:#a3b2b1;}</style><linearGradient id="Degradado_sin_nombre_5" x1="22.88" y1="13.88" x2="22.88" y2="0.82" gradientUnits="userSpaceOnUse"><stop offset="0" stop-color="#fff" stop-opacity="0"/><stop offset="1" stop-color="#fff"/></linearGradient></defs><title>Sin tiÌtulo-1</title><path class="cls-1" d="M19,3.45a2.9,2.9,0,0,0-2-.65,3,3,0,0,0-2.82,2.66,2.89,2.89,0,0,0,.2,1.41,3.72,3.72,0,0,0-2-.57,3.79,3.79,0,0,0,0,7.58H33.93a3.26,3.26,0,0,0,3.27-3.26A3.18,3.18,0,0,0,34,7.5a3.06,3.06,0,0,0-1.18.23,3.75,3.75,0,0,0-3.72-3.32,3.94,3.94,0,0,0-.77.08h0A3.14,3.14,0,0,0,28,3.43a5.26,5.26,0,0,0-9.07,0" transform="translate(-3.65 -0.82)"/><path class="cls-2" d="M8.76,16.16A2.05,2.05,0,0,1,6.7,17.94H3.84a.19.19,0,0,1-.19-.21l.72-5.86a.19.19,0,0,1,.19-.17H7.28a1.48,1.48,0,0,1,1.59,1.73,1.74,1.74,0,0,1-.58,1.12.2.2,0,0,0,0,.31A1.36,1.36,0,0,1,8.76,16.16Zm-1.09-.09a.75.75,0,0,0-.8-.88H5.2a.19.19,0,0,0-.19.17l-.17,1.39A.19.19,0,0,0,5,17H6.66A1,1,0,0,0,7.67,16.07Zm-2.5-2a.18.18,0,0,0,.19.21H6.79a.89.89,0,0,0,1-.8A.68.68,0,0,0,7,12.68H5.51a.2.2,0,0,0-.2.17Z" transform="translate(-3.65 -0.82)"/><path class="cls-2" d="M12.37,15.31l-.3,2.46a.2.2,0,0,1-.2.17H11.2a.18.18,0,0,1-.19-.21l.29-2.39a.22.22,0,0,0,0-.11L9.66,12a.19.19,0,0,1,.17-.28h.8a.18.18,0,0,1,.17.11l1,2.06a.2.2,0,0,0,.33,0l1.59-2.12a.18.18,0,0,1,.15-.08h.75a.19.19,0,0,1,.15.31l-2.4,3.2A.17.17,0,0,0,12.37,15.31Z" transform="translate(-3.65 -0.82)"/><path class="cls-2" d="M16.67,12.85l-.15,1.26a.2.2,0,0,0,.19.22h2.46a.2.2,0,0,1,.19.22l-.07.59a.19.19,0,0,1-.19.17H16.55a.19.19,0,0,0-.19.17l-.16,1.27a.2.2,0,0,0,.2.21h2.65a.19.19,0,0,1,.19.22l-.07.59a.2.2,0,0,1-.2.17H15.2a.19.19,0,0,1-.19-.21l.72-5.86a.2.2,0,0,1,.2-.17h3.76a.2.2,0,0,1,.2.22l-.08.59a.19.19,0,0,1-.19.17H16.87A.2.2,0,0,0,16.67,12.85Z" transform="translate(-3.65 -0.82)"/><path class="cls-2" d="M20.66,16.66a.2.2,0,0,1,.26.05,1.33,1.33,0,0,0,1.08.53c.51,0,.78-.17.83-.53s-.58-.52-.93-.64-1.48-.37-1.36-1.32.95-1.32,1.9-1.32a1.73,1.73,0,0,1,1.59.74.19.19,0,0,1-.07.26l-.42.25a.18.18,0,0,1-.24,0,1.34,1.34,0,0,0-1-.42c-.46,0-.73.19-.75.47s.54.51.9.62,1.51.41,1.39,1.36-.84,1.39-2,1.39a1.79,1.79,0,0,1-1.75-.88.2.2,0,0,1,.07-.25Z" transform="translate(-3.65 -0.82)"/><path class="cls-2" d="M26.49,14.31a.19.19,0,0,0-.19.17L26,16.58c-.06.5.24.56.53.56h.34l-.08.63a.19.19,0,0,1-.19.17h-.58A1,1,0,0,1,25,16.74l.28-2.21a.21.21,0,0,0-.2-.22h-.15a.19.19,0,0,1-.19-.21l.05-.4a.19.19,0,0,1,.19-.17h.25a.2.2,0,0,0,.19-.17l.13-1a.19.19,0,0,1,.19-.17h.65a.2.2,0,0,1,.19.22l-.12.92a.21.21,0,0,0,.2.22h.54a.19.19,0,0,1,.19.21l-.05.4a.19.19,0,0,1-.19.17Z" transform="translate(-3.65 -0.82)"/><path class="cls-2" d="M30.84,13.69l-.06.58a.21.21,0,0,1-.18.17A1.53,1.53,0,0,0,29,15.8l-.24,2a.19.19,0,0,1-.19.17H28a.18.18,0,0,1-.19-.21l.49-4a.19.19,0,0,1,.19-.17h.64a.19.19,0,0,1,.19.21h0a.19.19,0,0,0,.31.18,1.92,1.92,0,0,1,1-.44A.19.19,0,0,1,30.84,13.69Z" transform="translate(-3.65 -0.82)"/><path class="cls-2" d="M35.34,15.73l0,.29H32.2a.2.2,0,0,0-.19.23,1,1,0,0,0,1.08.9,1.51,1.51,0,0,0,1.1-.42.21.21,0,0,1,.26,0l.34.28a.19.19,0,0,1,0,.29A2.54,2.54,0,0,1,33,18a1.89,1.89,0,0,1-2-2.3,2.47,2.47,0,0,1,2.47-2.28A1.83,1.83,0,0,1,35.34,15.73Zm-3-.37H34.2a.2.2,0,0,0,.2-.23,1,1,0,0,0-1-.86,1.3,1.3,0,0,0-1.22.82A.19.19,0,0,0,32.36,15.36Z" transform="translate(-3.65 -0.82)"/><path class="cls-2" d="M36.38,16.66a.19.19,0,0,1,.25.05,1.35,1.35,0,0,0,1.08.53c.51,0,.79-.17.84-.53s-.59-.52-.94-.64-1.47-.37-1.36-1.32,1-1.32,1.9-1.32a1.74,1.74,0,0,1,1.6.74.2.2,0,0,1-.08.26l-.42.25a.18.18,0,0,1-.24,0,1.33,1.33,0,0,0-1-.42c-.46,0-.73.19-.76.47s.55.51.9.62,1.51.41,1.39,1.36-.84,1.39-1.95,1.39a1.81,1.81,0,0,1-1.76-.88.19.19,0,0,1,.08-.25Z" transform="translate(-3.65 -0.82)"/><path class="cls-2" d="M40.71,16.66a.19.19,0,0,1,.25.05,1.36,1.36,0,0,0,1.08.53c.51,0,.79-.17.84-.53s-.59-.52-.93-.64-1.48-.37-1.37-1.32,1-1.32,1.9-1.32a1.74,1.74,0,0,1,1.6.74.19.19,0,0,1-.08.26l-.42.25a.18.18,0,0,1-.24,0,1.31,1.31,0,0,0-1-.42c-.46,0-.73.19-.76.47s.55.51.9.62,1.51.41,1.4,1.36-.85,1.39-2,1.39a1.81,1.81,0,0,1-1.76-.88.19.19,0,0,1,.08-.25Z" transform="translate(-3.65 -0.82)"/></svg>